Coordinates
version=1
nRows=11
nColumns=40
inDegrees=yes

Units are S.I. units (second, meters, Newtons, ...)
Angles are in degrees.

endheader
time	pelvis_tilt	pelvis_list	pelvis_rotation	pelvis_tx	pelvis_ty	pelvis_tz	hip_flexion_r	hip_adduction_r	hip_rotation_r	knee_angle_r	knee_angle_r_beta	ankle_angle_r	subtalar_angle_r	mtp_angle_r	hip_flexion_l	hip_adduction_l	hip_rotation_l	knee_angle_l	knee_angle_l_beta	ankle_angle_l	subtalar_angle_l	mtp_angle_l	lumbar_extension	lumbar_bending	lumbar_rotation	arm_flex_r	arm_add_r	arm_rot_r	elbow_flex_r	pro_sup_r	wrist_flex_r	wrist_dev_r	arm_flex_l	arm_add_l	arm_rot_l	elbow_flex_l	pro_sup_l	wrist_flex_l	wrist_dev_l
      0.00000000	     -7.74291975	     -4.33059309	      7.48870339	     -0.91845846	      0.91226538	      1.53295926	     31.51323198	    -11.31255024	    -24.97943407	    -10.43224222	     -0.18207698	     -1.40971329	      8.96665747	      0.13563118	     -7.10399154	      0.09755102	      6.04356920	    -10.02368250	     -0.17494626	     11.13161331	     -5.16778832	    -19.18926602	     -3.09482042	      3.46922307	    -15.00466867	    -10.35687917	    -10.38003306	    -25.83768961	     22.03428333	     89.95437384	      0.00000000	      0.00000000	     12.94421794	     11.41988920	    -15.88375730	     43.97860926	     89.95437384	      0.00000000	      0.00000000
      0.01000000	     -7.62643882	     -4.46343329	      7.70626780	     -0.90565127	      0.91017529	      1.53596965	     31.88188165	    -11.04282112	    -25.84004691	    -10.00165292	     -0.17456177	     -1.50648555	     10.29792022	      0.00088326	     -7.81629167	      0.73030473	      6.23027852	    -10.51303586	     -0.18348709	     11.10799366	     -5.89369267	    -19.44389395	     -3.12614372	      3.64153923	    -14.75908903	    -10.26563486	    -10.52151554	    -26.28372774	     21.93788873	     89.95437384	      0.00000000	      0.00000000	     13.08477323	     11.30142338	    -16.35516297	     45.13844734	     89.95437384	      0.00000000	      0.00000000
      0.02000000	     -7.70058212	     -4.39478992	      7.74124746	     -0.89234063	      0.90787049	      1.53916739	     32.61161068	    -10.87515686	    -25.83687116	    -10.33116827	     -0.18031290	     -1.54284120	     10.07731343	     -0.00789221	     -8.40270839	      1.04199404	      6.07600852	    -10.99245935	     -0.19185461	     11.19172939	     -5.91725773	    -19.23186627	     -2.89278422	      3.55807832	    -14.44908131	    -10.29515911	    -10.71523771	    -26.26510085	     21.98386011	     89.95437384	      0.00000000	      0.00000000	     13.04507344	     11.11934839	    -16.48227235	     46.20429845	     89.95437384	      0.00000000	      0.00000000
      0.03000000	     -7.39880585	     -4.50433307	      8.01964540	     -0.87845182	      0.90626528	      1.54220212	     32.93563936	    -10.68082407	    -26.21339471	    -11.42677487	     -0.19943484	     -1.58993026	      9.49166232	     -0.04950273	     -9.19536677	      1.73349130	      6.25997767	    -11.76216598	     -0.20528852	     10.99695678	     -6.48475730	    -19.19460827	     -3.01706846	      3.72540792	    -14.31990203	    -10.20526909	    -10.89814057	    -26.55034589	     21.89610049	     89.95437384	      0.00000000	      0.00000000	     12.91415047	     11.08235798	    -16.69272467	     47.37857421	     89.95437384	      0.00000000	      0.00000000
      0.04000000	     -7.32938738	     -4.55668367	      8.04723898	     -0.86407532	      0.90450215	      1.54546234	     33.43319132	    -10.35732850	    -25.65092188	    -12.58377805	     -0.21962836	     -1.80167217	      8.76622090	     -0.04180353	     -9.78678259	      2.22191346	      5.93796795	    -12.61861495	     -0.22023638	     10.65905439	     -6.32047710	    -18.71479179	     -2.82854333	      3.81188583	    -13.95452177	    -10.31239471	    -11.11597689	    -26.52373800	     22.01423488	     89.95437384	      0.00000000	      0.00000000	     12.66472763	     10.86743928	    -16.60534524	     48.24923251	     89.95437384	      0.00000000	      0.00000000
      0.05000000	     -6.68913105	     -5.17453356	      8.15077112	     -0.84851870	      0.90380109	      1.54950934	     33.00395586	     -9.12180476	    -24.90559322	    -13.55491267	     -0.23657786	     -1.95109869	      6.00679011	      0.14675814	    -10.94049545	      3.71043965	      7.15861302	    -13.41531836	     -0.23414148	      9.85618506	     -8.10416758	    -19.54696198	     -3.11814272	      4.54469610	    -13.59453979	    -10.17918031	    -11.23555078	    -27.45023465	     21.83881340	     89.95437384	      0.00000000	      0.00000000	     12.28526273	     10.78550636	    -16.57725496	     49.20077653	     89.95437384	      0.00000000	      0.00000000
      0.06000000	     -6.24943518	     -5.59806207	      8.22376591	     -0.83290892	      0.90303531	      1.55324327	     32.76942562	     -8.16402060	    -23.85290823	    -14.77633166	     -0.25789564	     -2.12773533	      4.36257774	      0.14003961	    -11.88037179	      4.75511036	      7.19323643	    -14.29820480	     -0.24955075	      9.20701299	     -8.12630867	    -19.46786475	     -3.16823218	      5.05879742	    -13.26391738	    -10.18951482	    -11.47733931	    -27.54740347	     21.83693440	     89.95437384	      0.00000000	      0.00000000	     11.85230437	     10.62091550	    -16.35793266	     49.86748805	     89.95437384	      0.00000000	      0.00000000
      0.07000000	     -5.88450755	     -5.86335101	      8.18497524	     -0.81714233	      0.90244339	      1.55707503	     32.46302095	     -7.27981091	    -22.10995123	    -15.87412322	     -0.27705572	     -3.28345058	      3.61151461	      0.15369556	    -12.62636262	      5.60542848	      7.47716041	    -15.44294856	     -0.26953030	      8.34047017	     -7.97645215	    -19.05114926	     -3.16008621	      5.37546026	    -12.81055906	    -10.18970102	    -11.71008892	    -27.48229193	     21.76946315	     89.95437384	      0.00000000	      0.00000000	     11.22189532	     10.49942546	    -15.95345044	     50.63618379	     89.95437384	      0.00000000	      0.00000000
      0.08000000	     -5.68453563	     -5.92267556	      8.04258335	     -0.80144947	      0.90201460	      1.56078544	     32.33454075	     -6.77087674	    -20.27768023	    -16.88513628	     -0.29470122	     -7.26533126	      3.99985568	      0.68607303	    -13.15859359	      6.14496409	      7.50474888	    -16.71281339	     -0.29169362	      7.36061866	     -7.64962045	    -18.44613646	     -3.00402603	      5.47965347	    -12.36119031	    -10.19354897	    -11.94281045	    -27.31590057	     21.84565104	     89.95437384	      0.00000000	      0.00000000	     10.58642557	     10.41408298	    -15.60800599	     51.14198019	     89.95437384	      0.00000000	      0.00000000
      0.09000000	     -5.44780946	     -6.27602683	      7.80432394	     -0.78570841	      0.90218248	      1.56496891	     32.19782593	     -5.91365090	    -18.15337617	    -18.25078406	     -0.31853627	     -9.09890368	      3.68225434	      0.66194782	    -13.44347245	      7.06855845	      8.03976204	    -18.42380952	     -0.32155614	      5.84216110	     -7.27175104	    -17.76866747	     -2.86618653	      5.90181768	    -11.83351967	    -10.02477071	    -12.19571859	    -27.25207370	     21.74795898	     89.95437384	      0.00000000	      0.00000000	      9.84119003	     10.22886295	    -14.86982836	     51.44475458	     89.95437384	      0.00000000	      0.00000000
      0.10000000	     -5.27309390	     -6.47495558	      7.52928323	     -0.77044497	      0.90277941	      1.56888841	     32.73968534	     -5.48485522	    -17.35699928	    -21.10064738	     -0.36827577	     -8.44582378	      2.23889482	      0.24440186	    -13.44151745	      7.74820782	      8.42542986	    -20.42054205	     -0.35640569	      4.23090278	     -6.55253165	    -16.77510801	     -2.74650451	      6.16968703	    -11.21595021	     -9.85916141	    -12.41241953	    -27.01324638	     21.80025914	     89.95437384	      0.00000000	      0.00000000	      9.18290242	      9.97239196	    -14.10249551	     51.46189100	     89.95437384	      0.00000000	      0.00000000
